<svg preserveAspectRatio="none" overflow="visible" style="display: block;" width="110.212" height="86.3056" viewBox="0 0 110.212 86.3056" fill="none" xmlns="http://www.w3.org/2000/svg">
<g id="sw">
<path d="M11.7035 9.06222C11.7035 11.2497 12.2681 13.2288 13.3974 14.9995C14.6294 16.6661 16.1693 18.2286 18.0172 19.6869C19.8651 21.041 21.8671 22.3951 24.023 23.7493C26.5895 25.2075 29.1047 26.77 31.5686 28.4366C34.0325 29.9991 36.0858 31.9261 37.7284 34.2177C39.371 36.5093 40.1923 39.4779 40.1923 43.1237C40.1923 46.4569 39.3196 49.738 37.5744 52.9671C35.9318 56.092 33.4165 58.644 30.0287 60.6231C26.6408 62.6022 22.3804 63.5918 17.2473 63.5918C14.6807 63.5918 12.1141 63.2793 9.54759 62.6543C6.98103 62.1335 4.20915 61.0398 1.23195 59.3731C1.02662 59.1648 0.821297 58.9044 0.615974 58.5919C0.410649 58.2794 0.307986 57.9149 0.307986 57.4982L0 42.0299C0 41.7174 0.256656 41.5612 0.769966 41.5612C1.38594 41.457 1.74526 41.5091 1.84792 41.7174C2.9772 45.0507 4.56847 48.1756 6.62171 51.0922C8.67495 53.9046 10.9849 56.1962 13.5514 57.9669C16.2206 59.6336 18.8899 60.4669 21.5591 60.4669C23.6123 60.4669 25.3062 59.8419 26.6408 58.5919C27.9755 57.2378 28.6428 55.2066 28.6428 52.4984C28.6428 49.5818 27.9755 47.186 26.6408 45.3111C25.4089 43.332 23.8176 41.6654 21.8671 40.3112C19.9165 38.853 17.9146 37.5509 15.8613 36.4051C13.5001 35.051 11.1388 33.6448 8.77762 32.1865C6.41639 30.7282 4.4658 28.9053 2.92587 26.7179C1.38594 24.4263 0.615974 21.4577 0.615974 17.8119C0.615974 13.4371 1.69393 9.94761 3.84983 7.34352C6.00574 4.73944 8.77762 2.8645 12.1655 1.7187C15.656 0.572899 19.2492 0 22.945 0C25.2036 0 27.2568 0.156246 29.1047 0.468739C31.0553 0.781228 33.2626 1.40621 35.7265 2.34368C36.6504 2.65617 37.1124 3.22907 37.1124 4.06238C37.1124 6.14564 37.0611 8.33307 36.9584 10.6247C36.8557 12.8121 36.5385 22.2989 36.5385 25.0072C36.5385 25.3196 36.0872 25.0072 35.4712 25.0072C34.8553 25.0072 34.6905 25.3196 34.6905 25.0072C34.6905 23.028 34.1352 13.8537 32.4926 11.5621C30.9527 9.27055 28.8994 7.29144 26.3329 5.62483C23.7663 3.85405 20.9944 2.96866 18.0172 2.96866C16.5799 2.96866 15.1427 3.33323 13.7054 4.06238C12.3708 4.79152 11.7035 6.45813 11.7035 9.06222Z" fill="#262626"/>
<path d="M85.3384 85.659L69.5472 36.8378C68.0334 32.2035 66.8637 29.132 66.038 27.6232C65.2123 26.1143 64.1457 25.3599 62.8384 25.3599C62.7008 25.3599 62.632 25.0366 62.632 24.39C62.632 23.7433 62.7008 23.42 62.8384 23.42C63.8705 23.42 65.0403 23.4739 66.3477 23.5817C67.655 23.6894 69.444 23.7433 71.7146 23.7433C74.2605 23.7433 76.4279 23.6894 78.2169 23.5817C80.0747 23.4739 81.7605 23.42 83.2742 23.42C83.4118 23.42 83.4806 23.7433 83.4806 24.39C83.4806 25.0366 83.4118 25.3599 83.2742 25.3599C81.554 25.3599 80.2467 25.8988 79.3522 26.9765C78.4577 28.0542 78.3545 29.617 79.0426 31.6646L91.3246 67.8764L86.1641 82.2641L97.4141 39.7476C98.5838 35.3289 98.5838 31.8263 97.4141 29.2397C96.2443 26.6532 94.3177 25.3599 91.6343 25.3599C91.4278 25.3599 91.3246 25.0366 91.3246 24.39C91.3246 23.7433 91.4278 23.42 91.6343 23.42C93.2168 23.42 94.7306 23.4739 96.1755 23.5817C97.6893 23.6894 99.6159 23.7433 101.955 23.7433C103.676 23.7433 105.052 23.6894 106.084 23.5817C107.116 23.4739 108.389 23.42 109.903 23.42C110.109 23.42 110.212 23.7433 110.212 24.39C110.212 25.0366 110.109 25.3599 109.903 25.3599C107.976 25.3599 106.221 26.5454 104.639 28.9164C103.125 31.1797 101.68 34.844 100.304 39.9093L87.609 85.659C87.5402 86.0901 87.1618 86.3056 86.4737 86.3056C85.8545 86.3056 85.476 86.0901 85.3384 85.659ZM59.9485 85.659L44.1572 36.8378C42.6435 31.988 41.3362 28.8625 40.2352 27.4615C39.1343 26.0604 36.9285 25.1458 35.4147 25.1458C35.2083 25.1458 36.0036 25.0366 36.0036 24.39C36.0036 23.7433 36.1069 23.42 36.3133 23.42C37.483 23.42 38.7903 23.4739 40.2352 23.5817C41.749 23.6894 43.7788 23.7433 46.3247 23.7433C48.8705 23.7433 51.038 23.6894 52.827 23.5817C54.6847 23.4739 56.3705 23.42 57.8843 23.42C58.0907 23.42 58.1939 23.7433 58.1939 24.39C58.1939 25.0366 58.0907 25.3599 57.8843 25.3599C56.1641 25.3599 54.7191 25.791 53.5494 26.6532C52.4485 27.5154 52.3453 29.1859 53.2398 31.6646L66.038 67.8764L60.7742 82.2641L72.0242 39.7476L74.9141 39.9093L62.2191 85.659C62.1503 86.0901 61.7719 86.3056 61.0838 86.3056C60.4645 86.3056 60.0861 86.0901 59.9485 85.659Z" fill="#262626"/>
</g>
</svg>
